<svg width="60" height="60" viewBox="0 0 60 60" fill="none" xmlns="http://www.w3.org/2000/svg">
<path d="M15 30C6.7157 30 0 23.2843 0 15C0 6.7157 6.7157 0 15 0C23.2843 0 30 6.7157 30 15C30 23.2843 23.2843 30 15 30ZM45 30C53.2843 30 60 23.2843 60 15C60 6.7157 53.2843 0 45 0C36.7157 0 30 6.7157 30 15C30 23.2843 36.7157 30 45 30ZM15 30C6.7157 30 0 36.7157 0 45C0 53.2843 6.7157 60 15 60C23.2843 60 30 53.2843 30 45C30 36.7157 23.2843 30 15 30ZM45 30C36.7157 30 30 36.7157 30 45C30 53.2843 36.7157 60 45 60C53.2843 60 60 53.2843 60 45C60 36.7157 53.2843 30 45 30Z" fill="white"/>
</svg>
